<svg width="94" height="72" viewBox="0 0 94 72" fill="none" xmlns="http://www.w3.org/2000/svg">
<path d="M84.3062 51.9884C89.6043 51.9884 93.8992 47.6934 93.8992 42.3954C93.8992 37.0973 89.6043 32.8023 84.3062 32.8023C79.0081 32.8023 74.7132 37.0973 74.7132 42.3954C74.7132 47.6934 79.0081 51.9884 84.3062 51.9884Z" fill="#BE003F"/>
<path d="M71.5155 71.1744V32.8023H84.3062V58.4341C84.3062 64.7791 77.9109 71.1744 71.5155 71.1744Z" fill="#35495E"/>
<path d="M60.3256 71.1783C62.9757 71.1783 65.124 69.03 65.124 66.3798C65.124 63.7297 62.9757 61.5814 60.3256 61.5814C57.6755 61.5814 55.5271 63.7297 55.5271 66.3798C55.5271 69.03 57.6755 71.1783 60.3256 71.1783Z" fill="#35495E"/>
<path d="M49.9574 0.825584L40.6046 17.0736L31.2519 0.825584H0.100777L40.6046 71.1744L81.1085 0.825584H49.9574Z" fill="#41B782"/>
<path d="M49.9574 0.825584L40.6046 17.0736L31.2519 0.825584H16.3023L40.6046 43.0349L64.907 0.825584H49.9574Z" fill="#35495E"/>
</svg>
