<?xml version="1.0" encoding="utf-8"?>
<!-- Generator: Adobe Illustrator 23.0.6, SVG Export Plug-In . SVG Version: 6.00 Build 0)  -->
<svg version="1.1" id="レイヤー_1" xmlns="http://www.w3.org/2000/svg" xmlns:xlink="http://www.w3.org/1999/xlink" x="0px"
	 y="0px" viewBox="0 0 300 90" style="enable-background:new 0 0 300 90;" xml:space="preserve">
<style type="text/css">
	.st0{fill:none;}
	.st1{fill:#E80031;}
</style>
<g>
	<polygon class="st0" points="180.42,40.14 178.31,48.17 182.62,48.17 180.51,40.14 	"/>
	<polygon class="st0" points="125.03,40.14 122.92,48.17 127.23,48.17 125.12,40.14 	"/>
	<path class="st0" d="M260.38,36.85c-0.58-0.42-1.26-0.63-2.05-0.63c-0.79,0-1.47,0.21-2.05,0.63c-0.58,0.42-0.87,1.07-0.87,1.96
		v12.27c0,0.89,0.29,1.54,0.87,1.96c0.58,0.42,1.26,0.63,2.05,0.63c0.79,0,1.47-0.21,2.05-0.63c0.58-0.42,0.87-1.07,0.87-1.96V38.81
		C261.25,37.92,260.96,37.27,260.38,36.85z"/>
	<polygon points="99.66,36.22 104.65,36.22 104.65,57.13 108.96,57.13 108.96,36.22 113.95,36.22 113.95,32.76 99.66,32.76 	"/>
	<path d="M123.3,32.76l-6.72,24.37h4.31l1.27-5.51h5.88l1.27,5.51h4.31l-6.72-24.37H123.3z M122.92,48.17l2.11-8.03h0.08l2.11,8.03
		H122.92z"/>
	<g>
		<path class="st0" d="M146.07,36.22h-1.78v5.79h1.94c1.44,0,2.4-0.31,2.9-0.92c0.49-0.61,0.74-0.24,0.74-1.42
			c0-1.15-0.27-2.02-0.82-2.59C148.5,36.51,147.51,36.22,146.07,36.22z"/>
		<path class="st0" d="M149.24,46.22c-0.28-0.34-0.66-0.58-1.14-0.74c-0.48-0.16-1.11-0.23-1.9-0.23h-1.9v8.21h1.86
			c0.87,0,1.56-0.11,2.05-0.32c0.49-0.22,0.87-0.52,1.12-0.9c0.25-0.38,0.41-0.84,0.46-1.37c0.06-0.53,0.08-1.1,0.08-1.73
			c0-0.65-0.04-1.21-0.13-1.69C149.66,46.97,149.49,46.56,149.24,46.22z"/>
		<path d="M153.17,41.94c0.25-0.36,0.44-0.78,0.57-1.26c0.13-0.48,0.19,0.2,0.19-0.5v-0.94c0-0.84-0.13-1.65-0.4-2.43
			c-0.27-0.78-0.71-1.47-1.33-2.07c-0.62-0.6-1.42-1.08-2.39-1.44c-0.97-0.36-2.15-0.54-3.53-0.54h-6.3v24.37h5.88
			c2.82,0,4.87-0.6,6.15-1.8c1.28-1.2,1.92-2.93,1.92-5.19v-1.44c0-1.37-0.24-2.45-0.72-3.24c-0.48-0.79-1.23-1.39-2.24-1.8
			C151.96,43.19,152.69,42.61,153.17,41.94z M149.79,50.87c-0.06,0.53-0.21,0.98-0.46,1.37c-0.25,0.38-0.63,0.68-1.12,0.9
			c-0.49,0.22-1.18,0.32-2.05,0.32h-1.86v-8.21h1.9c0.79,0,1.42,0.08,1.9,0.23c0.48,0.16,0.86,0.4,1.14,0.74
			c0.25,0.34,0.42,0.74,0.51,1.22c0.08,0.48,0.13,1.04,0.13,1.69C149.88,49.76,149.85,50.34,149.79,50.87z M149.14,41.09
			c-0.49,0.61-1.46,0.92-2.9,0.92h-1.94v-5.79h1.78c1.44,0,2.43,0.29,2.98,0.86c0.55,0.58,0.82,1.44,0.82,2.59
			C149.88,40.85,149.63,40.48,149.14,41.09z"/>
	</g>
	<rect x="161.23" y="32.76" width="4.31" height="24.37"/>
	<path d="M178.69,32.76l-6.72,24.37h4.31l1.27-5.51h5.88l1.27,5.51H189l-6.72-24.37H178.69z M178.31,48.17l2.11-8.03h0.08l2.11,8.03
		H178.31z"/>
	<polygon points="206.03,46.94 205.95,46.94 199.44,32.76 195.3,32.76 195.3,57.13 199.61,57.13 199.61,41.72 199.69,41.72 
		206.29,57.13 210.34,57.13 210.34,32.76 206.03,32.76 	"/>
	<path d="M242.26,34.24c-1.27-1.13-2.92-1.69-4.95-1.69c-1.04,0-1.99,0.15-2.85,0.45c-0.86,0.3-1.6,0.71-2.22,1.24
		c-0.62,0.53-1.1,1.15-1.44,1.87c-0.34,0.72-0.51,1.5-0.51,2.34V51.3c0,1.18,0.22,2.14,0.66,2.9c0.44,0.76,0.99,1.37,1.67,1.85
		c0.68,0.48,1.44,0.82,2.28,1.01c0.85,0.19,1.68,0.29,2.49,0.29c0.96,0,1.85-0.16,2.68-0.49c0.83-0.32,1.56-0.76,2.18-1.31
		c0.62-0.55,1.11-1.18,1.46-1.89c0.35-0.71,0.53-1.46,0.53-2.25v-1.58h-4.31v1.26c0,0.5-0.08,0.92-0.25,1.26
		c-0.17,0.34-0.38,0.6-0.63,0.79c-0.28,0.19-0.59,0.33-0.91,0.41c-0.32,0.08-0.63,0.13-0.91,0.13c-0.99,0-1.67-0.25-2.05-0.76
		c-0.38-0.5-0.57-1.13-0.57-1.87V39.21c0-0.86,0.18-1.58,0.53-2.14c0.35-0.56,1.06-0.85,2.13-0.85c0.82,0,1.47,0.26,1.94,0.79
		c0.48,0.53,0.72,1.15,0.72,1.87v1.22h4.31v-1.44c0-0.89-0.18-1.71-0.53-2.47C243.36,35.44,242.88,34.79,242.26,34.24z"/>
	<path d="M263.28,34.09c-0.7-0.5-1.49-0.89-2.35-1.15c-0.86-0.26-1.73-0.4-2.6-0.4c-0.87,0-1.74,0.13-2.6,0.4
		c-0.86,0.26-1.63,0.65-2.3,1.15c-0.7,0.53-1.27,1.19-1.69,1.98c-0.42,0.79-0.63,1.7-0.63,2.74v12.27c0,1.08,0.21,2,0.63,2.77
		c0.42,0.77,0.99,1.4,1.69,1.91c0.68,0.53,1.44,0.92,2.3,1.19c0.86,0.26,1.73,0.4,2.6,0.4c0.87,0,1.74-0.13,2.6-0.4
		c0.86-0.26,1.64-0.66,2.35-1.19c0.68-0.5,1.23-1.14,1.65-1.91c0.42-0.77,0.63-1.69,0.63-2.77V38.81c0-1.03-0.21-1.94-0.63-2.74
		S263.95,34.62,263.28,34.09z M261.25,51.09c0,0.89-0.29,1.54-0.87,1.96c-0.58,0.42-1.26,0.63-2.05,0.63
		c-0.79,0-1.47-0.21-2.05-0.63c-0.58-0.42-0.87-1.07-0.87-1.96V38.81c0-0.89,0.29-1.54,0.87-1.96c0.58-0.42,1.26-0.63,2.05-0.63
		c0.79,0,1.47,0.21,2.05,0.63c0.58,0.42,0.87,1.07,0.87,1.96V51.09z"/>
	<rect x="272.44" y="53.46" width="4.31" height="3.67"/>
	<g>
		<rect x="27.27" y="22.93" class="st1" width="38.6" height="10.67"/>
		<g>
			<polygon class="st1" points="58.13,66.97 69.97,66.97 65.88,43.88 54.71,43.88 			"/>
			<polygon class="st1" points="23.17,66.97 35.02,66.97 38.43,43.88 27.26,43.88 			"/>
		</g>
	</g>
</g>
</svg>
